<?xml version="1.0" encoding="iso-8859-1"?>

<svg width="1em" height="1em" viewBox="0 0 76 31" xmlns="http://www.w3.org/2000/svg">
  <path d="M1.663 30.744a1.5 1.5 0 0 1-1.116-2.502l6.054-6.736C13.453 13.881 17.603 9.43 23.058 6.133 29.409 2.293 36.472.255 43.747.255c11.5 0 22.498 5.107 30.967 14.379a1.5 1.5 0 0 1-2.214 2.024C64.605 8.015 54.394 3.255 43.747 3.255c-5.791 0-11.444 1.404-16.667 4.072-6.278 3.207-9.462 6.409-18.125 16.049L2.78 30.248a1.5 1.5 0 0 1-1.117.496ZM9.64 12.423a1.5 1.5 0 0 1-1.117-.497L.547 3.051A1.5 1.5 0 0 1 2.78 1.045l7.975 8.875a1.5 1.5 0 0 1-1.115 2.503Zm57.461 11.909c-.419 0-.835-.174-1.132-.514-6.119-7.022-14.012-10.889-22.222-10.889-8.037 0-15.801 3.723-21.863 10.482a1.499 1.499 0 1 1-2.234-2.001c6.64-7.404 15.196-11.481 24.097-11.481 9.091 0 17.787 4.233 24.484 11.919a1.498 1.498 0 0 1-1.13 2.484Zm-37.573 4.494a1.498 1.498 0 0 1-1.039-2.582c4.526-4.344 9.802-6.641 15.258-6.641 5.155 0 10.186 2.07 14.551 5.985a1.5 1.5 0 1 1-2.004 2.232c-3.804-3.413-8.143-5.217-12.547-5.217-4.666 0-9.224 2.007-13.18 5.804a1.489 1.489 0 0 1-1.039.419Z" fill-rule="evenodd" />
</svg>